<svg version="1.1" id="Layer_1" xmlns="http://www.w3.org/2000/svg" xmlns:xlink="http://www.w3.org/1999/xlink" x="0px" y="0px"
	 width="100%" viewBox="0 0 512 512" enable-background="new 0 0 512 512" xml:space="preserve">
<path fill="#000000" opacity="1.000000" stroke="none" 
	d="
M282.000000,1.000000 
	C358.960541,1.000000 435.921112,1.000000 512.940430,1.000000 
	C512.940430,171.666672 512.940430,342.333344 512.940430,513.000000 
	C476.233063,513.000000 439.585175,513.000000 402.148193,512.687256 
	C401.825775,511.937836 402.223145,511.255310 402.769623,511.100983 
	C411.849213,508.537445 419.820740,504.163513 426.456421,496.906128 
	C435.226349,487.694611 440.171783,476.755402 440.832031,464.586243 
	C441.675720,449.036346 437.911743,434.545959 426.509308,422.926544 
	C425.799133,422.202881 425.570709,421.006500 425.504333,420.022644 
	C429.913605,421.048645 433.936707,422.082062 438.155426,423.463379 
	C443.568848,424.484802 448.786652,425.158325 454.462830,425.904968 
	C460.295349,425.356415 465.669525,424.734741 471.434143,424.060150 
	C476.563568,421.710602 481.302551,419.413940 486.399597,417.059906 
	C498.722015,409.494415 505.469635,398.386017 508.941620,384.542480 
	C511.627686,370.020325 510.182373,356.401215 502.484497,344.185059 
	C499.299896,339.131287 494.254425,335.250092 489.998413,330.611145 
	C489.763824,330.098083 489.505585,329.949463 489.064392,329.685028 
	C488.657349,329.239075 488.352722,329.048920 488.049500,328.900757 
	C488.050964,328.942719 488.133698,328.928162 488.041870,328.670746 
	C487.632996,328.315125 487.315918,328.216919 486.674683,327.968964 
	C481.237518,325.593994 476.124512,323.368774 470.656006,320.967163 
	C465.533173,319.576202 460.765900,318.361572 455.654327,316.977173 
	C449.878052,314.918671 444.446075,313.029938 438.683472,310.988342 
	C433.263855,308.183746 428.174835,305.531982 423.062805,302.919861 
	C423.039734,302.959503 423.126556,302.929901 423.037109,302.676575 
	C422.636353,302.324738 422.325104,302.226257 421.692322,301.983978 
	C415.261658,297.508698 409.152496,293.177216 402.929993,288.571716 
	C402.246460,288.184509 401.676270,288.071320 401.063568,287.605286 
	C402.624176,284.834137 404.227325,282.415863 405.985107,279.679382 
	C416.074402,265.171509 423.170715,249.653137 428.019043,232.645691 
	C432.299835,218.519440 435.161133,204.543945 435.079224,190.076477 
	C435.056122,190.062424 435.075775,190.112213 435.451263,189.881989 
	C435.569336,183.385513 435.311890,177.119247 435.030823,170.402405 
	C434.282623,163.635345 433.558014,157.318909 432.906158,150.589661 
	C430.002106,139.749298 427.025238,129.321747 424.027283,118.515640 
	C423.285278,116.085182 422.564362,114.033264 421.918091,111.660393 
	C421.681732,110.841278 421.370697,110.343102 421.034912,109.488205 
	C419.376678,106.405403 417.743195,103.679329 416.056946,100.586563 
	C411.707825,93.132263 407.411499,86.044655 403.060791,78.603134 
	C396.687866,70.451042 390.369324,62.652863 383.942047,54.573296 
	C382.935425,53.508942 382.037537,52.725967 381.005981,51.641464 
	C379.277161,49.858768 377.682007,48.377602 376.059265,46.933105 
	C376.031677,46.969776 376.119843,46.944382 376.031677,46.689034 
	C375.648499,46.240799 375.353485,46.047913 375.051086,45.895138 
	C375.043701,45.935249 375.120941,45.909058 374.991364,45.616814 
	C374.252686,45.172558 373.643616,45.020546 372.878174,44.564529 
	C367.814636,40.562572 362.907440,36.864628 357.678528,33.013378 
	C352.677887,29.586641 348.275269,25.793648 343.270782,23.132486 
	C324.656525,13.234240 305.210388,5.592043 284.088654,2.911512 
	C283.323914,2.814459 282.693176,1.661083 282.000000,1.000000 
z"/>
<path fill="#000000" opacity="1.000000" stroke="none" 
	d="
M109.000000,513.000000 
	C73.018578,513.000000 37.037155,513.000000 1.027867,513.000000 
	C1.027867,342.440002 1.027867,171.879974 1.027867,1.000000 
	C76.687263,1.000000 152.374969,1.000000 228.793900,1.370656 
	C229.016281,2.136495 228.541626,2.819459 227.993576,2.884552 
	C215.914459,4.319199 204.057495,6.818233 193.075348,12.116343 
	C180.561600,18.153330 168.333237,24.781828 155.668686,31.081301 
	C154.864029,31.309551 154.371536,31.609747 153.927094,31.941763 
	C153.975174,31.973583 153.910446,31.878170 153.595657,32.021042 
	C148.171005,36.395794 143.061142,40.627674 137.636719,44.912270 
	C136.840881,45.277569 136.359619,45.590160 135.918121,45.923103 
	C135.957886,45.943451 135.933472,45.857525 135.682526,45.955830 
	C135.246155,46.351692 135.060730,46.649250 134.913177,46.950119 
	C134.951065,46.953426 134.942520,46.877846 134.687531,46.965942 
	C134.246033,47.351158 134.059509,47.648273 133.904480,47.948853 
	C133.935989,47.952312 133.890045,47.908417 133.583664,48.041626 
	C126.834152,55.403191 120.391006,62.631554 113.693832,69.956833 
	C113.250900,70.353371 113.062004,70.653000 112.913208,70.954437 
	C112.953308,70.956261 112.947151,70.876205 112.691879,70.966476 
	C112.245735,71.353493 112.054871,71.650238 111.903214,71.953323 
	C111.942413,71.959671 111.918625,71.883896 111.629868,72.016098 
	C111.184532,72.753036 111.027954,73.357780 110.912628,73.964417 
	C110.953873,73.966316 110.949020,73.883881 110.694283,73.971649 
	C110.254395,74.356544 110.069252,74.653671 109.914398,74.954292 
	C109.944687,74.957787 109.901505,74.914574 109.590355,75.071457 
	C108.787003,76.047684 108.288177,76.863144 107.803635,77.687004 
	C103.849182,84.410843 99.897392,91.136253 95.622025,98.029106 
	C92.182594,105.752739 89.065918,113.308456 85.633736,121.028412 
	C85.165878,122.119804 85.013527,123.046951 84.899689,123.972427 
	C84.938202,123.970757 84.924744,123.894844 84.609772,124.054451 
	C84.248840,125.132729 84.202888,126.051407 84.079742,127.212738 
	C83.960396,127.619850 83.918243,127.784294 83.541183,128.139175 
	C81.455658,137.178406 79.705048,146.027206 77.594780,155.090332 
	C77.144066,157.834366 77.053009,160.364059 76.603638,163.113358 
	C76.215675,165.878586 76.186028,168.424210 76.084244,171.435226 
	C76.058548,178.266373 76.104988,184.632111 76.080406,191.439362 
	C76.669350,198.181519 76.864334,204.575531 78.106255,210.759293 
	C79.680145,218.595978 82.104805,226.261795 84.090225,234.393494 
	C88.920494,251.021606 95.939880,266.234985 105.929916,280.394348 
	C107.609375,283.487457 109.237045,286.224548 110.515900,288.968201 
	C107.119484,291.358093 104.071869,293.741455 100.675514,296.142578 
	C91.887451,301.153381 83.448128,306.146362 74.629723,311.071899 
	C67.498543,313.380371 60.746452,315.756256 53.597336,318.067749 
	C47.796326,319.715637 42.392345,321.427887 36.668159,323.069336 
	C35.847435,323.313751 35.346920,323.628998 34.551704,323.953857 
	C33.818260,324.251526 33.379520,324.539612 32.580975,324.895844 
	C28.124443,327.804504 23.504118,330.118073 20.022465,333.577637 
	C5.649481,347.859344 1.137796,365.224823 5.071204,385.338135 
	C5.342837,386.791138 5.631538,387.868134 6.017112,388.909241 
	C11.112101,402.666077 18.842222,414.154175 33.117447,420.452393 
	C37.485691,422.125763 41.698132,423.470154 46.301094,425.011475 
	C58.449528,427.198700 69.916008,426.224945 81.399422,421.902588 
	C85.660965,422.000763 82.862915,424.353455 82.452400,424.869659 
	C71.695763,438.394989 67.841949,453.598083 70.976295,470.590179 
	C72.774269,480.337463 76.957245,488.865295 83.992935,496.337769 
	C90.886467,503.526123 98.551308,508.873596 108.114906,511.125488 
	C108.533836,511.224152 108.710495,512.351685 109.000000,513.000000 
z"/>
<path fill="#000000" opacity="1.000000" stroke="none" 
	d="
M373.000000,513.000000 
	C294.979095,513.000000 216.958206,513.000000 138.149734,512.694397 
	C137.826782,511.946350 138.222900,511.242004 138.766098,511.099884 
	C151.424561,507.788300 160.732269,499.670044 169.360809,489.982880 
	C177.465515,481.272827 185.257095,472.690033 193.369171,463.974609 
	C202.835495,451.243866 211.981339,438.645721 221.447540,425.903320 
	C223.233139,423.286926 224.753326,420.845398 226.154144,418.337219 
	C232.159821,407.583923 238.130371,396.811005 244.437729,385.910919 
	C249.082291,378.800751 256.548431,377.383301 262.117828,381.830078 
	C264.834564,383.999176 266.670746,387.271149 268.957886,390.411469 
	C272.967102,397.532196 276.923981,404.285339 280.939728,411.402527 
	C286.385010,420.179504 291.771393,428.592468 297.173706,437.350159 
	C303.087952,445.142365 308.986267,452.589874 314.937561,460.390381 
	C322.643951,469.196838 330.297363,477.650330 338.074188,486.413177 
	C348.245483,497.139984 358.161102,507.740143 372.923615,511.595520 
	C373.061920,511.631653 372.979401,512.513184 373.000000,513.000000 
z"/>
<path fill="#EC7283" opacity="1.000000" stroke="none" 
	d="
M155.980835,31.153244 
	C168.333237,24.781828 180.561600,18.153330 193.075348,12.116343 
	C204.057495,6.818233 215.914459,4.319199 227.993576,2.884552 
	C228.541626,2.819459 229.016281,2.136495 229.262558,1.370656 
	C246.354233,1.000000 263.708466,1.000000 281.531342,1.000000 
	C282.693176,1.661083 283.323914,2.814459 284.088654,2.911512 
	C305.210388,5.592043 324.656525,13.234240 343.270782,23.132486 
	C348.275269,25.793648 352.677887,29.586641 357.659668,33.404266 
	C357.495270,37.712288 354.571075,36.977993 352.198517,36.978958 
	C287.944031,37.005085 223.689468,36.967941 159.435165,37.076569 
	C155.455795,37.083294 153.392838,36.130135 153.910446,31.878170 
	C153.910446,31.878170 153.975174,31.973583 154.219315,31.941936 
	C154.969254,31.657940 155.475037,31.405592 155.980835,31.153244 
z"/>
<path fill="#F4CAD1" opacity="1.000000" stroke="none" 
	d="
M373.468658,513.000000 
	C372.979401,512.513184 373.061920,511.631653 372.923615,511.595520 
	C358.161102,507.740143 348.245483,497.139984 338.385132,486.128967 
	C348.511444,485.356934 358.451660,485.230103 368.387756,484.954742 
	C370.285309,484.902161 372.166595,484.263489 374.398987,483.966614 
	C381.165802,487.412292 387.434753,491.132599 394.047913,494.080841 
	C404.325043,498.662567 415.194763,498.701660 426.138000,497.026703 
	C419.820740,504.163513 411.849213,508.537445 402.769623,511.100983 
	C402.223145,511.255310 401.825775,511.937836 401.679504,512.687256 
	C392.645782,513.000000 383.291534,513.000000 373.468658,513.000000 
z"/>
<path fill="#F4CAD1" opacity="1.000000" stroke="none" 
	d="
M169.047684,490.110107 
	C160.732269,499.670044 151.424561,507.788300 138.766098,511.099884 
	C138.222900,511.242004 137.826782,511.946350 137.681076,512.694397 
	C128.645767,513.000000 119.291542,513.000000 109.468658,513.000000 
	C108.710495,512.351685 108.533836,511.224152 108.114906,511.125488 
	C98.551308,508.873596 90.886467,503.526123 84.418732,496.329376 
	C96.966705,499.106415 109.044487,498.746460 120.812515,493.880707 
	C125.254654,492.044006 129.567978,489.895782 134.254517,488.178864 
	C144.173950,488.645447 153.780457,488.769348 163.382553,489.045441 
	C165.279572,489.100006 167.159744,489.740082 169.047684,490.110107 
z"/>
<path fill="#EC8593" opacity="1.000000" stroke="none" 
	d="
M84.162567,234.001297 
	C82.104805,226.261795 79.680145,218.595978 78.106255,210.759293 
	C76.864334,204.575531 76.669350,198.181519 76.492378,191.459412 
	C79.932388,191.358627 82.889282,191.958435 85.846428,191.959717 
	C197.215515,192.007431 308.584625,192.024979 419.953613,191.919037 
	C425.003754,191.914230 430.052765,190.726990 435.102295,190.090515 
	C435.161133,204.543945 432.299835,218.519440 427.681580,232.704041 
	C422.672211,238.497314 416.595490,238.112244 410.401245,238.060547 
	C390.633881,237.895584 370.864319,237.996643 351.037903,237.571777 
	C350.182098,220.160553 339.730743,208.309982 323.081146,206.759384 
	C309.831177,205.525375 300.116943,211.891693 292.979370,223.122467 
	C288.574524,223.395920 284.627502,223.937744 280.677704,223.958771 
	C262.919891,224.053345 245.161148,223.962158 227.403351,224.056168 
	C225.538544,224.066025 223.677841,224.853790 221.562531,225.040375 
	C213.100891,208.915237 196.865906,202.343552 181.628860,209.073227 
	C169.192657,214.565872 163.635391,224.759659 162.566589,238.001785 
	C142.170654,238.000748 122.245712,238.016541 102.320831,237.990570 
	C95.989571,237.982330 89.375069,239.149780 84.162567,234.001297 
z"/>
<path fill="#EC8190" opacity="1.000000" stroke="none" 
	d="
M435.079224,190.076462 
	C430.052765,190.726990 425.003754,191.914230 419.953613,191.919037 
	C308.584625,192.024979 197.215515,192.007431 85.846428,191.959717 
	C82.889282,191.958435 79.932388,191.358627 76.563400,191.017914 
	C76.104988,184.632111 76.058548,178.266373 76.314484,171.113876 
	C76.731895,167.849335 76.846924,165.371552 76.961960,162.893753 
	C77.053009,160.364059 77.144066,157.834366 77.607437,155.511353 
	C77.603416,161.963791 82.177498,160.976212 85.864441,160.977203 
	C187.886490,161.004532 289.908539,160.997742 391.992554,161.371918 
	C392.417175,163.012848 392.775970,164.279602 393.143188,165.543945 
	C394.610596,170.596817 399.094971,173.809067 403.779327,173.165878 
	C409.698730,172.353073 413.006592,168.775803 412.951935,162.826736 
	C412.921844,159.546982 412.412903,156.271637 412.533325,153.014923 
	C419.783081,154.386612 426.585571,155.407318 432.833374,151.002457 
	C433.558014,157.318909 434.282623,163.635345 435.015259,170.879974 
	C435.040771,177.909515 435.058289,184.010864 435.075806,190.112213 
	C435.075775,190.112213 435.056122,190.062424 435.079224,190.076462 
z"/>
<path fill="#EC8E9A" opacity="1.000000" stroke="none" 
	d="
M110.864716,288.961639 
	C109.237045,286.224548 107.609375,283.487457 106.337280,280.396729 
	C109.760834,280.694794 112.821640,281.867065 115.898010,281.909424 
	C130.367065,282.108704 144.842087,282.103851 159.310104,281.869781 
	C161.218796,281.838898 163.099426,280.073212 165.306641,279.197571 
	C167.082626,279.225708 168.545029,279.167297 170.110352,279.461700 
	C172.825775,280.542969 175.433853,281.884857 178.051514,281.903809 
	C200.998230,282.069946 223.946655,282.000000 246.894577,282.000000 
	C276.494080,282.000000 306.094086,282.076874 335.692200,281.873688 
	C338.465515,281.854645 341.226685,280.067749 344.306549,279.191589 
	C346.082367,279.227295 347.545135,279.173065 349.107605,279.477173 
	C350.611877,280.548950 352.040894,281.925903 353.417267,281.875183 
	C370.887543,281.231537 388.485443,283.963959 405.830444,279.997620 
	C404.227325,282.415863 402.624176,284.834137 400.725708,287.676025 
	C390.496979,297.933746 382.459961,309.077850 376.687866,321.739044 
	C374.560760,321.314056 372.752716,321.020172 370.944580,321.019714 
	C291.956696,320.998566 212.968796,321.003357 133.733246,320.762695 
	C133.293076,320.068573 133.094818,319.619202 132.908905,319.164764 
	C128.047531,307.281952 120.413719,297.422943 110.864716,288.961639 
z"/>
<path fill="#EC7B8A" opacity="1.000000" stroke="none" 
	d="
M85.949249,120.864174 
	C89.065918,113.308456 92.182594,105.752739 95.684509,98.396835 
	C97.369438,102.086708 99.988464,103.044403 103.543289,103.042336 
	C196.121948,102.988342 288.700653,102.999573 381.279327,102.999580 
	C390.030945,102.999580 398.787476,103.165253 407.531403,102.905960 
	C410.407623,102.820671 413.251190,101.635490 416.109711,100.953262 
	C417.743195,103.679329 419.376678,106.405403 421.042206,109.784561 
	C421.330627,110.952209 421.587036,111.466782 421.843445,111.981339 
	C422.564362,114.033264 423.285278,116.085182 423.854980,118.838257 
	C421.321564,120.692894 418.945862,122.781830 416.555817,122.798317 
	C412.063416,122.829315 407.562744,121.663437 402.883087,120.690636 
	C401.398590,117.515915 400.272583,114.548813 398.756653,111.796448 
	C395.858673,106.534607 390.050507,104.561378 385.199768,106.962082 
	C380.068665,109.501518 378.153595,114.749214 380.291656,120.415855 
	C381.222565,122.883080 382.156616,125.349106 382.838806,128.123978 
	C380.052032,128.954849 377.516144,129.932220 374.979431,129.934326 
	C280.967682,130.012268 186.955887,130.019104 92.944199,129.913757 
	C89.920769,129.910370 86.898766,128.632492 83.876099,127.948738 
	C83.918243,127.784294 83.960396,127.619850 84.292206,126.962540 
	C84.696159,125.611389 84.810448,124.753120 84.924744,123.894844 
	C84.924744,123.894844 84.938202,123.970757 85.170105,123.752579 
	C85.584419,122.644333 85.766838,121.754257 85.949249,120.864174 
z"/>
<path fill="#EC7988" opacity="1.000000" stroke="none" 
	d="
M416.056946,100.586563 
	C413.251190,101.635490 410.407623,102.820671 407.531403,102.905960 
	C398.787476,103.165253 390.030945,102.999580 381.279327,102.999580 
	C288.700653,102.999573 196.121948,102.988342 103.543289,103.042336 
	C99.988464,103.044403 97.369438,102.086708 96.007263,98.228928 
	C99.897392,91.136253 103.849182,84.410843 107.803635,77.687004 
	C108.288177,76.863144 108.787003,76.047684 109.619736,75.485794 
	C109.798180,80.371429 113.054489,80.006516 116.123482,80.006180 
	C190.995102,79.998077 265.866760,80.019661 340.738220,79.913612 
	C343.229462,79.910080 345.718903,78.632050 348.453552,78.159225 
	C351.481873,81.415062 354.349335,84.388359 357.029053,87.522186 
	C360.530975,91.617500 364.864014,93.257500 369.882965,91.334389 
	C374.855286,89.429169 377.314301,85.468452 377.460205,80.000381 
	C386.324677,79.652504 394.719910,79.304779 403.115173,78.957047 
	C407.411499,86.044655 411.707825,93.132263 416.056946,100.586563 
z"/>
<path fill="#EC9CA7" opacity="1.000000" stroke="none" 
	d="
M426.456421,496.906128 
	C415.194763,498.701660 404.325043,498.662567 394.047913,494.080841 
	C387.434753,491.132599 381.165802,487.412292 374.225769,483.684998 
	C365.484375,475.547363 357.259766,467.762726 348.890259,459.672424 
	C342.833252,451.909943 336.921173,444.453217 330.866760,436.686340 
	C330.001587,435.270935 329.293213,434.155884 328.553436,433.062073 
	C324.031250,426.375702 319.501923,419.694153 315.321472,413.056274 
	C319.639435,414.729370 321.514008,419.261841 327.059357,419.186432 
	C356.319580,418.788666 385.588074,419.017944 414.853577,418.954895 
	C416.587524,418.951172 418.320099,418.296692 420.395447,418.005188 
	C422.197784,418.720215 423.657959,419.375122 425.118164,420.030029 
	C425.570709,421.006500 425.799133,422.202881 426.509308,422.926544 
	C437.911743,434.545959 441.675720,449.036346 440.832031,464.586243 
	C440.171783,476.755402 435.226349,487.694611 426.456421,496.906128 
z"/>
<path fill="#EC7686" opacity="1.000000" stroke="none" 
	d="
M403.060791,78.603134 
	C394.719910,79.304779 386.324677,79.652504 377.295593,79.698380 
	C372.639648,74.640091 368.842621,69.667130 364.533691,65.186485 
	C359.977325,60.448559 354.489349,60.204140 349.881897,63.874313 
	C345.419708,67.428734 344.873688,72.023033 348.209167,77.948097 
	C345.718903,78.632050 343.229462,79.910080 340.738220,79.913612 
	C265.866760,80.019661 190.995102,79.998077 116.123482,80.006180 
	C113.054489,80.006516 109.798180,80.371429 109.930893,75.328911 
	C109.901505,74.914574 109.944687,74.957787 110.143440,74.833038 
	C110.544472,74.433479 110.746742,74.158684 110.949020,73.883881 
	C110.949020,73.883881 110.953873,73.966316 111.164665,73.784943 
	C111.556511,73.030350 111.737564,72.457123 111.918625,71.883896 
	C111.918625,71.883896 111.942413,71.959671 112.136467,71.833557 
	C112.536064,71.430367 112.741608,71.153290 112.947159,70.876205 
	C112.947151,70.876205 112.953308,70.956261 113.145172,70.828979 
	C113.540642,70.421104 113.744255,70.140511 113.947868,69.859917 
	C120.391006,62.631554 126.834152,55.403191 133.603027,48.417465 
	C132.847183,50.414650 131.705887,52.136051 130.706131,53.936062 
	C130.096405,55.033817 129.152222,56.388775 129.394760,57.372723 
	C129.579178,58.120945 131.349869,58.662018 132.500305,58.935482 
	C133.604263,59.197891 134.818298,58.999634 135.983963,58.999641 
	C215.749619,59.000027 295.515259,59.000019 375.280914,58.999756 
	C376.446594,58.999752 377.852478,59.413261 378.728729,58.908695 
	C380.645386,57.805065 382.293182,56.234512 384.050781,54.854683 
	C390.369324,62.652863 396.687866,70.451042 403.060791,78.603134 
z"/>
<path fill="#EC7485" opacity="1.000000" stroke="none" 
	d="
M383.942047,54.573299 
	C382.293182,56.234512 380.645386,57.805065 378.728729,58.908695 
	C377.852478,59.413261 376.446594,58.999752 375.280914,58.999756 
	C295.515259,59.000019 215.749619,59.000027 135.983963,58.999641 
	C134.818298,58.999634 133.604263,59.197891 132.500305,58.935482 
	C131.349869,58.662018 129.579178,58.120945 129.394760,57.372723 
	C129.152222,56.388775 130.096405,55.033817 130.706131,53.936062 
	C131.705887,52.136051 132.847183,50.414650 133.909424,48.284256 
	C133.890045,47.908417 133.935989,47.952312 134.135345,47.828926 
	C134.537292,47.429642 134.739899,47.153744 134.942520,46.877846 
	C134.942520,46.877846 134.951065,46.953426 135.143982,46.826935 
	C135.535767,46.419472 135.734619,46.138496 135.933472,45.857525 
	C135.933472,45.857525 135.957886,45.943451 136.228333,45.911331 
	C136.982956,45.539330 137.467117,45.199444 137.951294,44.859558 
	C143.061142,40.627674 148.171005,36.395794 153.595657,32.021042 
	C153.392838,36.130135 155.455795,37.083294 159.435165,37.076569 
	C223.689468,36.967941 287.944031,37.005085 352.198517,36.978958 
	C354.571075,36.977993 357.495270,37.712288 357.981415,33.557564 
	C362.907440,36.864628 367.814636,40.562572 373.058624,44.815952 
	C373.970612,45.550610 374.545776,45.729832 375.120941,45.909058 
	C375.120941,45.909058 375.043701,45.935249 375.168396,46.129501 
	C375.568695,46.530632 375.844269,46.737507 376.119843,46.944382 
	C376.119843,46.944382 376.031677,46.969776 376.044861,47.313644 
	C376.283356,50.827393 378.140228,52.062592 381.139648,51.942993 
	C382.037537,52.725967 382.935425,53.508942 383.942047,54.573299 
z"/>
<path fill="#EC8A97" opacity="1.000000" stroke="none" 
	d="
M405.985107,279.679382 
	C388.485443,283.963959 370.887543,281.231537 353.417267,281.875183 
	C352.040894,281.925903 350.611877,280.548950 349.477661,279.420593 
	C351.731415,278.194458 353.898651,277.666779 355.665344,276.521301 
	C362.177765,272.298828 363.700592,265.249908 359.185730,259.988098 
	C355.554626,255.756271 350.616425,254.553131 345.300537,254.617126 
	C347.294128,248.860168 349.194855,243.427567 351.095581,237.994965 
	C370.864319,237.996643 390.633881,237.895584 410.401245,238.060547 
	C416.595490,238.112244 422.672211,238.497314 427.505249,233.058258 
	C423.170715,249.653137 416.074402,265.171509 405.985107,279.679382 
z"/>
<path fill="#EC7887" opacity="1.000000" stroke="none" 
	d="
M377.006866,322.006989 
	C382.459961,309.077850 390.496979,297.933746 400.768250,288.028931 
	C401.676270,288.071320 402.246460,288.184509 403.071869,288.973145 
	C403.551392,291.444244 403.968597,293.239624 403.971161,295.035553 
	C404.012085,323.608734 404.024658,352.182037 403.955902,380.755127 
	C403.950012,383.205780 403.323608,385.654968 402.615753,388.037323 
	C398.829773,386.972839 395.413483,385.975891 391.842163,384.683167 
	C387.118500,376.926300 382.549866,369.465210 377.931702,361.616272 
	C376.917877,354.548248 375.333862,347.883331 375.168030,341.183319 
	C375.010284,334.810272 376.334351,328.400574 377.006866,322.006989 
z"/>
<path fill="#EC7E8D" opacity="1.000000" stroke="none" 
	d="
M402.985474,388.104858 
	C403.323608,385.654968 403.950012,383.205780 403.955902,380.755127 
	C404.024658,352.182037 404.012085,323.608734 403.971161,295.035553 
	C403.968597,293.239624 403.551392,291.444244 403.185242,289.247192 
	C409.152496,293.177216 415.261658,297.508698 421.837524,302.168060 
	C422.539764,302.713715 422.813843,302.858368 423.126556,302.929901 
	C423.126556,302.929901 423.039734,302.959503 423.038605,303.395844 
	C423.024963,331.899109 423.038971,359.966095 422.956299,388.032806 
	C422.948608,390.647125 422.328583,393.259644 421.664429,395.885529 
	C420.898499,395.871948 420.460968,395.845825 419.782166,395.579803 
	C414.022400,392.928223 408.503937,390.516541 402.985474,388.104858 
z"/>
<path fill="#EC8190" opacity="1.000000" stroke="none" 
	d="
M421.992859,395.873016 
	C422.328583,393.259644 422.948608,390.647125 422.956299,388.032806 
	C423.038971,359.966095 423.024963,331.899109 423.061646,303.356201 
	C428.174835,305.531982 433.263855,308.183746 438.859589,311.357666 
	C439.577545,313.509766 439.971069,315.139526 439.972809,316.769714 
	C440.002441,344.540405 439.983521,372.311096 439.557434,400.065674 
	C433.423981,398.657379 427.708435,397.265198 421.992859,395.873016 
z"/>
<path fill="#EC8795" opacity="1.000000" stroke="none" 
	d="
M439.975311,400.081818 
	C439.983521,372.311096 440.002441,344.540405 439.972809,316.769714 
	C439.971069,315.139526 439.577545,313.509766 439.190186,311.510498 
	C444.446075,313.029938 449.878052,314.918671 455.658386,317.395630 
	C456.337830,320.939453 456.947662,323.894287 456.956207,326.850830 
	C457.029510,352.134735 456.993805,377.418915 456.624512,402.774261 
	C455.515015,402.863098 454.771698,402.880737 453.702545,402.663696 
	C448.925201,401.947205 444.473755,401.465393 440.008789,400.758240 
	C439.995270,400.532898 439.975311,400.081818 439.975311,400.081818 
z"/>
<path fill="#EC8E9A" opacity="1.000000" stroke="none" 
	d="
M471.011536,321.143524 
	C476.124512,323.368774 481.237518,325.593994 486.821228,328.157379 
	C487.534821,328.713074 487.815430,328.857269 488.133698,328.928162 
	C488.133698,328.928162 488.050964,328.942719 488.178101,329.136169 
	C488.592438,329.533325 488.879608,329.737091 489.166779,329.940826 
	C489.505585,329.949463 489.763824,330.098083 489.982605,331.090302 
	C490.008759,353.484772 489.993835,375.175659 489.690857,397.026642 
	C488.258484,397.759949 487.114166,398.333160 485.573029,398.929810 
	C480.780853,399.918701 476.385468,400.884155 471.992401,401.390411 
	C471.996094,376.441162 472.021576,351.951111 471.955963,327.461273 
	C471.950317,325.354523 471.340607,323.249390 471.011536,321.143524 
z"/>
<path fill="#EC8A97" opacity="1.000000" stroke="none" 
	d="
M470.656006,320.967163 
	C471.340607,323.249390 471.950317,325.354523 471.955963,327.461273 
	C472.021576,351.951111 471.996094,376.441162 471.748352,401.457275 
	C471.337830,402.021393 471.173645,402.059418 470.579498,402.073120 
	C465.763275,402.266876 461.376984,402.484955 456.990723,402.703064 
	C456.993805,377.418915 457.029510,352.134735 456.956207,326.850830 
	C456.947662,323.894287 456.337830,320.939453 456.002655,317.565369 
	C460.765900,318.361572 465.533173,319.576202 470.656006,320.967163 
z"/>
<path fill="#EC96A1" opacity="1.000000" stroke="none" 
	d="
M489.978943,396.866516 
	C489.993835,375.175659 490.008759,353.484772 490.039459,331.314758 
	C494.254425,335.250092 499.299896,339.131287 502.484497,344.185059 
	C510.182373,356.401215 511.627686,370.020325 508.633850,384.675446 
	C502.160858,389.109985 496.069885,392.988251 489.978943,396.866516 
z"/>
<path fill="#EC7E8D" opacity="1.000000" stroke="none" 
	d="
M403.065491,120.995224 
	C407.562744,121.663437 412.063416,122.829315 416.555817,122.798317 
	C418.945862,122.781830 421.321564,120.692894 423.876038,119.216797 
	C427.025238,129.321747 430.002106,139.749298 432.906189,150.589661 
	C426.585571,155.407318 419.783081,154.386612 412.429413,152.631119 
	C408.963165,141.816208 406.014343,131.405716 403.065491,120.995224 
z"/>
<path fill="#F1B7BF" opacity="1.000000" stroke="none" 
	d="
M439.557434,400.065674 
	C439.975311,400.081818 439.995270,400.532898 439.674622,400.973022 
	C438.902863,403.077698 438.115417,404.731567 438.062164,406.408752 
	C437.885651,411.973145 437.973389,417.545929 437.959778,423.115479 
	C433.936707,422.082062 429.913605,421.048645 425.504333,420.022644 
	C423.657959,419.375122 422.197784,418.720215 420.268341,417.757477 
	C419.536713,416.958557 419.274353,416.467438 419.009155,415.510925 
	C419.345367,408.636932 419.684387,402.228302 420.023438,395.819702 
	C420.460968,395.845825 420.898499,395.871948 421.664429,395.885529 
	C427.708435,397.265198 433.423981,398.657379 439.557434,400.065674 
z"/>
<path fill="#F2BDC5" opacity="1.000000" stroke="none" 
	d="
M438.155426,423.463379 
	C437.973389,417.545929 437.885651,411.973145 438.062164,406.408752 
	C438.115417,404.731567 438.902863,403.077698 439.688110,401.198364 
	C444.473755,401.465393 448.925201,401.947205 453.693512,403.142944 
	C454.008362,411.181885 454.006378,418.506866 454.004425,425.831848 
	C448.786652,425.158325 443.568848,424.484802 438.155426,423.463379 
z"/>
<path fill="#F3C4CC" opacity="1.000000" stroke="none" 
	d="
M454.462830,425.904968 
	C454.006378,418.506866 454.008362,411.181885 454.019379,403.377625 
	C454.771698,402.880737 455.515015,402.863098 456.624512,402.774292 
	C461.376984,402.484955 465.763275,402.266876 470.557617,402.484924 
	C470.991699,409.985077 471.017670,417.049042 471.043671,424.113037 
	C465.669525,424.734741 460.295349,425.356415 454.462830,425.904968 
z"/>
<path fill="#F4CAD1" opacity="1.000000" stroke="none" 
	d="
M471.434143,424.060150 
	C471.017670,417.049042 470.991699,409.985077 470.987610,402.509277 
	C471.173645,402.059418 471.337830,402.021393 471.746033,401.916504 
	C476.385468,400.884155 480.780853,399.918701 485.582275,399.407288 
	C486.006073,405.613342 486.023804,411.365295 486.041534,417.117279 
	C481.302551,419.413940 476.563568,421.710602 471.434143,424.060150 
z"/>
<path fill="#F6D0D7" opacity="1.000000" stroke="none" 
	d="
M486.399597,417.059906 
	C486.023804,411.365295 486.006073,405.613342 485.979065,399.383850 
	C487.114166,398.333160 488.258484,397.759949 489.690857,397.026611 
	C496.069885,392.988251 502.160858,389.109985 508.559631,385.098755 
	C505.469635,398.386017 498.722015,409.494415 486.399597,417.059906 
z"/>
<path fill="#EC8593" opacity="1.000000" stroke="none" 
	d="
M435.451294,189.881989 
	C435.058289,184.010864 435.040771,177.909515 435.038849,171.330582 
	C435.311890,177.119247 435.569336,183.385513 435.451294,189.881989 
z"/>
<path fill="#EC7686" opacity="1.000000" stroke="none" 
	d="
M381.005981,51.641464 
	C378.140228,52.062592 376.283356,50.827393 376.072449,47.276978 
	C377.682007,48.377602 379.277161,49.858768 381.005981,51.641464 
z"/>
<path fill="#EC7686" opacity="1.000000" stroke="none" 
	d="
M374.991364,45.616814 
	C374.545776,45.729832 373.970612,45.550610 373.214966,45.119957 
	C373.643616,45.020546 374.252686,45.172558 374.991364,45.616814 
z"/>
<path fill="#EC7E8D" opacity="1.000000" stroke="none" 
	d="
M421.918091,111.660400 
	C421.587036,111.466782 421.330627,110.952209 421.066956,110.141281 
	C421.370697,110.343102 421.681732,110.841278 421.918091,111.660400 
z"/>
<path fill="#EC8190" opacity="1.000000" stroke="none" 
	d="
M423.037109,302.676575 
	C422.813843,302.858368 422.539764,302.713715 422.159058,302.311859 
	C422.325104,302.226257 422.636353,302.324738 423.037109,302.676575 
z"/>
<path fill="#EC96A1" opacity="1.000000" stroke="none" 
	d="
M488.041870,328.670746 
	C487.815430,328.857269 487.534821,328.713074 487.145386,328.307129 
	C487.315918,328.216919 487.632996,328.315125 488.041870,328.670746 
z"/>
<path fill="#EC96A1" opacity="1.000000" stroke="none" 
	d="
M489.064392,329.685028 
	C488.879608,329.737091 488.592438,329.533325 488.176666,329.094177 
	C488.352722,329.048920 488.657349,329.239075 489.064392,329.685028 
z"/>
<path fill="#EC7686" opacity="1.000000" stroke="none" 
	d="
M376.031677,46.689034 
	C375.844269,46.737507 375.568695,46.530632 375.175781,46.089394 
	C375.353485,46.047913 375.648499,46.240799 376.031677,46.689034 
z"/>
<path fill="#EC7E8D" opacity="1.000000" stroke="none" 
	d="
M83.541183,128.139175 
	C86.898766,128.632492 89.920769,129.910370 92.944199,129.913757 
	C186.955887,130.019104 280.967682,130.012268 374.979431,129.934326 
	C377.516144,129.932220 380.052032,128.954849 383.084229,128.401459 
	C386.363617,139.245972 389.147125,150.121292 391.930603,160.996613 
	C289.908539,160.997742 187.886490,161.004532 85.864441,160.977203 
	C82.177498,160.976212 77.603416,161.963791 77.967102,155.297028 
	C79.705048,146.027206 81.455658,137.178406 83.541183,128.139175 
z"/>
<path fill="#EC9CA7" opacity="1.000000" stroke="none" 
	d="
M133.940033,487.889587 
	C129.567978,489.895782 125.254654,492.044006 120.812515,493.880707 
	C109.044487,498.746460 96.966705,499.106415 84.281128,496.015808 
	C76.957245,488.865295 72.774269,480.337463 70.976295,470.590179 
	C67.841949,453.598083 71.695763,438.394989 82.452400,424.869659 
	C82.862915,424.353455 85.660965,422.000763 81.664337,421.681030 
	C84.048637,420.589264 86.521271,419.791046 89.342209,419.148804 
	C92.950798,419.203217 96.210999,419.016388 99.471375,419.013428 
	C125.899559,418.989471 152.327789,419.013428 178.755966,418.990479 
	C185.257904,418.984833 192.140671,420.321747 197.070557,414.201782 
	C197.226624,414.008087 197.702744,414.072174 197.972015,414.361267 
	C195.280716,418.806824 192.647079,422.907196 189.759003,427.223328 
	C180.335434,439.292297 171.166306,451.145538 161.705414,463.160614 
	C152.255783,471.511475 143.097916,479.700531 133.940033,487.889587 
z"/>
<path fill="#EC8A97" opacity="1.000000" stroke="none" 
	d="
M164.993042,279.110992 
	C163.099426,280.073212 161.218796,281.838898 159.310104,281.869781 
	C144.842087,282.103851 130.367065,282.108704 115.898010,281.909424 
	C112.821640,281.867065 109.760834,280.694794 106.285492,280.040710 
	C95.939880,266.234985 88.920494,251.021606 84.090225,234.393494 
	C89.375069,239.149780 95.989571,237.982330 102.320831,237.990570 
	C122.245712,238.016541 142.170654,238.000748 162.640259,238.412415 
	C164.861801,243.894348 166.538666,248.964981 167.803009,254.031281 
	C165.302765,254.533417 163.116379,254.796432 161.146866,255.594589 
	C156.325928,257.548309 152.359329,260.397858 152.051315,266.260681 
	C151.683990,273.252716 156.582886,278.106384 164.993042,279.110992 
z"/>
<path fill="#EC8795" opacity="1.000000" stroke="none" 
	d="
M53.994362,318.132111 
	C60.746452,315.756256 67.498543,313.380371 74.627670,311.531616 
	C75.003136,333.805023 75.000404,355.551270 75.001373,377.297546 
	C75.001511,380.219849 75.020386,383.142151 74.868805,386.350861 
	C69.815445,391.755127 64.923851,396.872986 59.803574,402.087402 
	C59.150333,402.441681 58.725788,402.699341 57.850529,402.944092 
	C55.940716,402.870728 54.481617,402.810242 53.017151,402.296814 
	C53.007767,376.043488 52.980633,350.243042 53.042828,324.442810 
	C53.047897,322.338501 53.662815,320.235657 53.994362,318.132111 
z"/>
<path fill="#EC8190" opacity="1.000000" stroke="none" 
	d="
M75.030579,386.064453 
	C75.020386,383.142151 75.001511,380.219849 75.001373,377.297546 
	C75.000404,355.551270 75.003136,333.805023 75.006760,311.599060 
	C83.448128,306.146362 91.887451,301.153381 100.670044,296.603210 
	C101.009003,312.974915 100.971863,328.903931 101.047600,344.832458 
	C101.055794,346.557251 101.717422,348.278961 102.042953,350.373657 
	C95.510567,364.423157 85.740273,375.602600 75.030579,386.064453 
z"/>
<path fill="#EC8E9A" opacity="1.000000" stroke="none" 
	d="
M53.597336,318.067749 
	C53.662815,320.235657 53.047897,322.338501 53.042828,324.442810 
	C52.980633,350.243042 53.007767,376.043488 52.589432,402.362488 
	C46.741043,402.251953 41.315010,401.622803 35.813992,400.866638 
	C35.623508,400.572662 35.465332,400.474884 34.937355,400.371643 
	C34.387375,400.277924 34.164513,400.258820 33.620239,400.174927 
	C32.871216,400.019196 32.443596,399.928253 31.992451,399.425842 
	C31.645880,396.235748 31.055843,393.458344 31.043043,390.678314 
	C30.959074,372.441040 30.893822,354.202087 31.087723,335.966492 
	C31.127270,332.247406 32.293766,328.540283 32.940769,324.827698 
	C33.379520,324.539612 33.818260,324.251526 34.850021,323.945282 
	C35.958157,323.664795 36.473267,323.402496 36.988373,323.140167 
	C42.392345,321.427887 47.796326,319.715637 53.597336,318.067749 
z"/>
<path fill="#EC939F" opacity="1.000000" stroke="none" 
	d="
M32.580967,324.895813 
	C32.293766,328.540283 31.127270,332.247406 31.087723,335.966492 
	C30.893822,354.202087 30.959074,372.441040 31.043043,390.678314 
	C31.055843,393.458344 31.645880,396.235748 31.627014,399.421875 
	C26.053684,397.344666 20.687078,395.103088 15.635714,392.294525 
	C11.921175,390.229248 8.619153,387.422028 5.133303,384.945435 
	C1.137796,365.224823 5.649481,347.859344 20.022465,333.577637 
	C23.504118,330.118073 28.124443,327.804504 32.580967,324.895813 
z"/>
<path fill="#E88792" opacity="1.000000" stroke="none" 
	d="
M58.301243,402.957001 
	C58.725788,402.699341 59.150333,402.441681 60.247265,402.098145 
	C70.612442,400.176910 80.459358,398.910706 89.953171,396.340393 
	C98.825935,393.938171 107.324036,390.152130 115.947830,387.328369 
	C113.433617,391.126251 111.226097,394.807648 108.429314,397.967499 
	C102.105309,405.112640 95.490463,412.000397 88.993896,418.992828 
	C86.521271,419.791046 84.048637,420.589264 81.311096,421.609009 
	C69.916008,426.224945 58.449528,427.198700 46.325081,424.646393 
	C46.626221,422.417603 47.073730,420.615295 48.001083,419.108276 
	C51.347088,413.670746 54.854679,408.332642 58.301243,402.957001 
z"/>
<path fill="#EC7988" opacity="1.000000" stroke="none" 
	d="
M102.075951,350.002106 
	C101.717422,348.278961 101.055794,346.557251 101.047600,344.832458 
	C100.971863,328.903931 101.009003,312.974915 101.018791,296.585388 
	C104.071869,293.741455 107.119484,291.358093 110.515900,288.968201 
	C120.413719,297.422943 128.047531,307.281952 132.908905,319.164764 
	C133.094818,319.619202 133.293076,320.068573 133.743805,321.172028 
	C134.633072,325.577057 135.264084,329.330353 135.576874,332.987610 
	C129.899307,327.106628 123.796242,322.881409 115.555191,326.071655 
	C107.366737,329.241516 103.637985,335.591339 103.883827,344.446259 
	C103.934731,346.280060 102.711792,348.149231 102.075951,350.002106 
z"/>
<path fill="#F6D0D7" opacity="1.000000" stroke="none" 
	d="
M5.071204,385.338135 
	C8.619153,387.422028 11.921175,390.229248 15.635714,392.294525 
	C20.687078,395.103088 26.053684,397.344666 31.650536,399.833344 
	C32.443596,399.928253 32.871216,400.019196 33.616035,400.571838 
	C33.609371,407.396851 33.285511,413.760101 32.961651,420.123383 
	C18.842222,414.154175 11.112101,402.666077 6.017112,388.909241 
	C5.631538,387.868134 5.342837,386.791138 5.071204,385.338135 
z"/>
<path fill="#F3C4CC" opacity="1.000000" stroke="none" 
	d="
M33.117447,420.452393 
	C33.285511,413.760101 33.609371,407.396851 33.937439,400.636658 
	C34.164513,400.258820 34.387375,400.277924 35.021690,400.474976 
	C35.574066,400.781219 35.726013,400.894775 35.888981,400.993622 
	C41.315010,401.622803 46.741043,402.251953 52.594795,402.815430 
	C54.481617,402.810242 55.940716,402.870728 57.850529,402.944092 
	C54.854679,408.332642 51.347088,413.670746 48.001083,419.108276 
	C47.073730,420.615295 46.626221,422.417603 45.934563,424.449463 
	C41.698132,423.470154 37.485691,422.125763 33.117447,420.452393 
z"/>
<path fill="#EC8593" opacity="1.000000" stroke="none" 
	d="
M76.603638,163.113358 
	C76.846924,165.371552 76.731895,167.849335 76.386620,170.648483 
	C76.186028,168.424210 76.215675,165.878586 76.603638,163.113358 
z"/>
<path fill="#EC7E8D" opacity="1.000000" stroke="none" 
	d="
M84.609772,124.054451 
	C84.810448,124.753120 84.696159,125.611389 84.369400,126.719872 
	C84.202888,126.051407 84.248840,125.132729 84.609772,124.054451 
z"/>
<path fill="#EC7E8D" opacity="1.000000" stroke="none" 
	d="
M85.633743,121.028412 
	C85.766838,121.754257 85.584419,122.644333 85.131592,123.754257 
	C85.013527,123.046951 85.165878,122.119804 85.633743,121.028412 
z"/>
<path fill="#EC7988" opacity="1.000000" stroke="none" 
	d="
M111.629868,72.016098 
	C111.737564,72.457123 111.556511,73.030350 111.123413,73.783051 
	C111.027954,73.357780 111.184532,72.753036 111.629868,72.016098 
z"/>
<path fill="#EC939F" opacity="1.000000" stroke="none" 
	d="
M36.668163,323.069336 
	C36.473267,323.402496 35.958157,323.664795 35.144726,323.935669 
	C35.346920,323.628998 35.847435,323.313751 36.668163,323.069336 
z"/>
<path fill="#EC7686" opacity="1.000000" stroke="none" 
	d="
M137.636719,44.912270 
	C137.467117,45.199444 136.982956,45.539330 136.188568,45.890984 
	C136.359619,45.590160 136.840881,45.277569 137.636719,44.912270 
z"/>
<path fill="#EC7485" opacity="1.000000" stroke="none" 
	d="
M155.668686,31.081299 
	C155.475037,31.405592 154.969254,31.657940 154.171234,31.910116 
	C154.371536,31.609747 154.864029,31.309551 155.668686,31.081299 
z"/>
<path fill="#EC7988" opacity="1.000000" stroke="none" 
	d="
M110.694283,73.971649 
	C110.746742,74.158684 110.544472,74.433479 110.113144,74.829544 
	C110.069252,74.653671 110.254395,74.356544 110.694283,73.971649 
z"/>
<path fill="#EC7686" opacity="1.000000" stroke="none" 
	d="
M135.682526,45.955830 
	C135.734619,46.138496 135.535767,46.419472 135.106110,46.823631 
	C135.060730,46.649250 135.246155,46.351692 135.682526,45.955830 
z"/>
<path fill="#EC7988" opacity="1.000000" stroke="none" 
	d="
M112.691879,70.966476 
	C112.741608,71.153290 112.536064,71.430367 112.097260,71.827217 
	C112.054871,71.650238 112.245735,71.353493 112.691879,70.966476 
z"/>
<path fill="#EC7988" opacity="1.000000" stroke="none" 
	d="
M113.693832,69.956833 
	C113.744255,70.140511 113.540642,70.421104 113.105072,70.827164 
	C113.062004,70.653000 113.250900,70.353371 113.693832,69.956833 
z"/>
<path fill="#EC7686" opacity="1.000000" stroke="none" 
	d="
M134.687531,46.965942 
	C134.739899,47.153744 134.537292,47.429642 134.103821,47.825462 
	C134.059509,47.648273 134.246033,47.351158 134.687531,46.965942 
z"/>
<path fill="#EC96A1" opacity="1.000000" stroke="none" 
	d="
M89.342209,419.148804 
	C95.490463,412.000397 102.105309,405.112640 108.429314,397.967499 
	C111.226097,394.807648 113.433617,391.126251 116.160614,387.075439 
	C118.273178,384.639557 120.518990,383.063141 121.920502,380.931580 
	C125.774559,375.069946 129.274567,368.975525 133.347778,362.977203 
	C136.907623,362.654144 140.034180,362.043518 143.161148,362.041473 
	C221.434479,361.990021 299.707855,362.002716 377.981201,362.004089 
	C382.549866,369.465210 387.118500,376.926300 391.988220,384.992493 
	C401.196869,395.723816 410.104401,405.850098 419.011963,415.976349 
	C419.274353,416.467438 419.536713,416.958557 419.926208,417.697327 
	C418.320099,418.296692 416.587524,418.951172 414.853577,418.954895 
	C385.588074,419.017944 356.319580,418.788666 327.059357,419.186432 
	C321.514008,419.261841 319.639435,414.729370 315.080017,412.870361 
	C313.692902,412.070709 312.893677,411.502258 312.062195,410.573975 
	C309.749512,406.590820 307.931580,402.545105 305.090332,399.433899 
	C299.539917,393.356232 293.914642,387.148071 287.407043,382.193542 
	C279.179932,375.929932 272.260529,378.965454 269.773987,388.856049 
	C269.663147,389.296936 269.202942,389.649963 268.905487,390.043915 
	C266.670746,387.271149 264.834564,383.999176 262.117828,381.830078 
	C256.548431,377.383301 249.082291,378.800751 244.175079,385.683777 
	C240.601685,379.703125 237.731323,378.178314 231.623138,379.955353 
	C223.816223,382.226532 218.113098,387.612122 213.211212,393.760773 
	C207.953705,400.355499 203.074158,407.251556 198.029663,414.016083 
	C197.702744,414.072174 197.226624,414.008087 197.070557,414.201782 
	C192.140671,420.321747 185.257904,418.984833 178.755966,418.990479 
	C152.327789,419.013428 125.899559,418.989471 99.471375,419.013428 
	C96.210999,419.016388 92.950798,419.203217 89.342209,419.148804 
z"/>
<path fill="#F0B2BB" opacity="1.000000" stroke="none" 
	d="
M197.972015,414.361267 
	C203.074158,407.251556 207.953705,400.355499 213.211212,393.760773 
	C218.113098,387.612122 223.816223,382.226532 231.623138,379.955353 
	C237.731323,378.178314 240.601685,379.703125 243.851059,385.818115 
	C238.130371,396.811005 232.159821,407.583923 226.154144,418.337219 
	C224.753326,420.845398 223.233139,423.286926 220.971054,425.890808 
	C210.120636,426.350861 200.067047,426.679230 190.013443,427.007599 
	C192.647079,422.907196 195.280716,418.806824 197.972015,414.361267 
z"/>
<path fill="#F2BDC5" opacity="1.000000" stroke="none" 
	d="
M189.759003,427.223328 
	C200.067047,426.679230 210.120636,426.350861 220.650726,426.035034 
	C211.981339,438.645721 202.835495,451.243866 193.116104,463.675049 
	C190.527237,463.005615 188.504059,462.046112 186.497971,462.080627 
	C178.328201,462.221100 170.163666,462.666046 161.997192,462.998779 
	C171.166306,451.145538 180.335434,439.292297 189.759003,427.223328 
z"/>
<path fill="#F3C4CC" opacity="1.000000" stroke="none" 
	d="
M349.035187,459.978119 
	C357.259766,467.762726 365.484375,475.547363 373.882172,483.613586 
	C372.166595,484.263489 370.285309,484.902161 368.387756,484.954742 
	C358.451660,485.230103 348.511444,485.356934 338.261719,485.819580 
	C330.297363,477.650330 322.643951,469.196838 315.413513,460.380981 
	C326.902710,460.005096 337.968964,459.991608 349.035187,459.978119 
z"/>
<path fill="#F3C4CC" opacity="1.000000" stroke="none" 
	d="
M161.705429,463.160614 
	C170.163666,462.666046 178.328201,462.221100 186.497971,462.080627 
	C188.504059,462.046112 190.527237,463.005615 192.795624,463.807678 
	C185.257095,472.690033 177.465515,481.272827 169.360809,489.982880 
	C167.159744,489.740082 165.279572,489.100006 163.382553,489.045441 
	C153.780457,488.769348 144.173950,488.645447 134.254517,488.178894 
	C143.097916,479.700531 152.255783,471.511475 161.705429,463.160614 
z"/>
<path fill="#F1B7BF" opacity="1.000000" stroke="none" 
	d="
M312.094452,410.933807 
	C312.893677,411.502258 313.692902,412.070709 314.733551,412.825073 
	C319.501923,419.694153 324.031250,426.375702 328.553436,433.062073 
	C329.293213,434.155884 330.001587,435.270935 330.397125,436.687561 
	C319.099121,437.001099 308.128448,437.003265 297.157776,437.005402 
	C291.771393,428.592468 286.385010,420.179504 281.415924,411.392487 
	C291.920288,410.990234 302.007385,410.962036 312.094452,410.933807 
z"/>
<path fill="#EFB0B9" opacity="1.000000" stroke="none" 
	d="
M312.062195,410.573975 
	C302.007385,410.962036 291.920288,410.990234 281.357025,411.028473 
	C276.923981,404.285339 272.967102,397.532196 268.957886,390.411469 
	C269.202942,389.649963 269.663147,389.296936 269.773987,388.856049 
	C272.260529,378.965454 279.179932,375.929932 287.407043,382.193542 
	C293.914642,387.148071 299.539917,393.356232 305.090332,399.433899 
	C307.931580,402.545105 309.749512,406.590820 312.062195,410.573975 
z"/>
<path fill="#F2BDC5" opacity="1.000000" stroke="none" 
	d="
M297.173706,437.350159 
	C308.128448,437.003265 319.099121,437.001099 330.539429,436.997711 
	C336.921173,444.453217 342.833252,451.909943 348.890259,459.672424 
	C337.968964,459.991608 326.902710,460.005096 315.360535,460.027985 
	C308.986267,452.589874 303.087952,445.142365 297.173706,437.350159 
z"/>
<path fill="#FDFCFC" opacity="1.000000" stroke="none" 
	d="
M168.215515,254.035614 
	C166.538666,248.964981 164.861801,243.894348 163.111267,238.413086 
	C163.635391,224.759659 169.192657,214.565872 181.628860,209.073227 
	C196.865906,202.343552 213.100891,208.915237 221.609161,225.426773 
	C224.412903,233.309570 223.953903,240.563995 221.625641,248.038345 
	C217.461487,252.868103 214.115250,258.133453 209.551788,261.939331 
	C201.797821,268.406036 192.322708,267.522095 182.732910,265.863342 
	C177.699829,261.802246 172.957672,257.918945 168.215515,254.035614 
M177.562927,228.300522 
	C174.035141,236.727737 175.311340,244.268295 181.200623,249.794556 
	C186.710587,254.964813 194.841263,256.136292 201.577255,252.730438 
	C208.312988,249.324707 212.062469,242.271286 211.238358,234.556076 
	C210.460709,227.275726 205.154404,221.097610 198.100708,219.259949 
	C190.277252,217.221710 183.178558,220.175629 177.562927,228.300522 
z"/>
<path fill="#FDFCFC" opacity="1.000000" stroke="none" 
	d="
M351.037903,237.571777 
	C349.194855,243.427567 347.294128,248.860168 345.011719,254.811920 
	C340.041992,258.605225 335.453918,261.879395 330.484131,265.161194 
	C327.212158,265.770721 324.331451,266.834778 321.430023,266.894836 
	C308.534424,267.161743 299.545990,260.641235 293.071289,249.562897 
	C289.211182,240.441574 289.805023,231.771118 293.435944,223.151062 
	C300.116943,211.891693 309.831177,205.525375 323.081146,206.759384 
	C339.730743,208.309982 350.182098,220.160553 351.037903,237.571777 
M338.150421,233.387924 
	C335.262939,222.424240 325.601654,216.504608 315.536255,219.531815 
	C306.260803,222.321457 300.920441,231.538101 303.067444,241.050995 
	C305.034027,249.764435 314.328003,256.098419 323.020508,254.649307 
	C333.140625,252.962219 339.180298,244.855072 338.150421,233.387924 
z"/>
<path fill="#EC8795" opacity="1.000000" stroke="none" 
	d="
M292.979370,223.122467 
	C289.805023,231.771118 289.211182,240.441574 292.677185,249.734467 
	C291.388824,250.515625 290.427582,250.947281 289.465424,250.949310 
	C268.667572,250.993301 247.868866,251.064789 227.073059,250.856903 
	C225.337463,250.839539 223.621307,248.876556 221.896118,247.817520 
	C223.953903,240.563995 224.412903,233.309570 221.861847,225.667053 
	C223.677841,224.853790 225.538544,224.066025 227.403351,224.056168 
	C245.161148,223.962158 262.919891,224.053345 280.677704,223.958771 
	C284.627502,223.937744 288.574524,223.395920 292.979370,223.122467 
z"/>
<path fill="#FFCBD2" opacity="1.000000" stroke="none" 
	d="
M391.992554,161.371918 
	C389.147125,150.121292 386.363617,139.245972 383.334686,128.093170 
	C382.156616,125.349106 381.222565,122.883080 380.291656,120.415855 
	C378.153595,114.749214 380.068665,109.501518 385.199768,106.962082 
	C390.050507,104.561378 395.858673,106.534607 398.756653,111.796448 
	C400.272583,114.548813 401.398590,117.515915 402.883118,120.690628 
	C406.014343,131.405716 408.963165,141.816208 412.015930,152.610504 
	C412.412903,156.271637 412.921844,159.546982 412.951935,162.826736 
	C413.006592,168.775803 409.698730,172.353073 403.779327,173.165878 
	C399.094971,173.809067 394.610596,170.596817 393.143188,165.543945 
	C392.775970,164.279602 392.417175,163.012848 391.992554,161.371918 
z"/>
<path fill="#EC929E" opacity="1.000000" stroke="none" 
	d="
M377.931702,361.616272 
	C299.707855,362.002716 221.434479,361.990021 143.161148,362.041473 
	C140.034180,362.043518 136.907623,362.654144 133.385910,362.586700 
	C135.683548,352.661407 138.544235,343.147400 135.895111,333.083679 
	C135.264084,329.330353 134.633072,325.577057 133.991486,321.414368 
	C212.968796,321.003357 291.956696,320.998566 370.944580,321.019714 
	C372.752716,321.020172 374.560760,321.314056 376.687866,321.739044 
	C376.334351,328.400574 375.010284,334.810272 375.168030,341.183319 
	C375.333862,347.883331 376.917877,354.548248 377.931702,361.616272 
z"/>
<path fill="#EC8A97" opacity="1.000000" stroke="none" 
	d="
M221.625641,248.038345 
	C223.621307,248.876556 225.337463,250.839539 227.073059,250.856903 
	C247.868866,251.064789 268.667572,250.993301 289.465424,250.949310 
	C290.427582,250.947281 291.388824,250.515625 292.744629,250.112518 
	C299.545990,260.641235 308.534424,267.161743 321.430023,266.894836 
	C324.331451,266.834778 327.212158,265.770721 330.548523,265.548279 
	C331.675415,273.862061 335.913422,278.157135 343.993500,279.101654 
	C341.226685,280.067749 338.465515,281.854645 335.692200,281.873688 
	C306.094086,282.076874 276.494080,282.000000 246.894577,282.000000 
	C223.946655,282.000000 200.998230,282.069946 178.051514,281.903809 
	C175.433853,281.884857 172.825775,280.542969 170.479691,279.403442 
	C177.767380,277.451630 181.680801,272.964691 183.023834,266.041077 
	C192.322708,267.522095 201.797821,268.406036 209.551788,261.939331 
	C214.115250,258.133453 217.461487,252.868103 221.625641,248.038345 
M246.842438,265.866028 
	C248.099716,266.284088 249.363708,266.683044 250.613144,267.123413 
	C257.396851,269.514404 268.005005,266.898163 271.910522,261.353424 
	C272.971741,259.846802 273.389099,256.306641 272.438019,255.344406 
	C271.113800,254.004684 267.386932,253.055527 266.143890,253.953644 
	C259.805054,258.533600 254.110107,258.476105 247.791412,253.916641 
	C246.566299,253.032623 242.373291,254.016037 241.577621,255.348892 
	C240.575012,257.028412 241.179810,260.135437 242.005951,262.273010 
	C242.550323,263.681549 244.707397,264.466827 246.842438,265.866028 
z"/>
<path fill="#EFC4DA" opacity="1.000000" stroke="none" 
	d="
M182.732910,265.863342 
	C181.680801,272.964691 177.767380,277.451630 170.376770,279.050598 
	C168.545029,279.167297 167.082626,279.225708 165.306641,279.197571 
	C156.582886,278.106384 151.683990,273.252716 152.051315,266.260681 
	C152.359329,260.397858 156.325928,257.548309 161.146866,255.594589 
	C163.116379,254.796432 165.302765,254.533417 167.803009,254.031281 
	C172.957672,257.918945 177.699829,261.802246 182.732910,265.863342 
z"/>
<path fill="#EFC4DA" opacity="1.000000" stroke="none" 
	d="
M344.306549,279.191589 
	C335.913422,278.157135 331.675415,273.862061 330.930206,265.540619 
	C335.453918,261.879395 340.041992,258.605225 344.918884,255.136276 
	C350.616425,254.553131 355.554626,255.756271 359.185730,259.988098 
	C363.700592,265.249908 362.177765,272.298828 355.665344,276.521301 
	C353.898651,277.666779 351.731415,278.194458 349.377930,279.062256 
	C347.545135,279.173065 346.082367,279.227295 344.306549,279.191589 
z"/>
<path fill="#FFCBD2" opacity="1.000000" stroke="none" 
	d="
M348.453552,78.159225 
	C344.873688,72.023033 345.419708,67.428734 349.881897,63.874313 
	C354.489349,60.204140 359.977325,60.448559 364.533691,65.186485 
	C368.842621,69.667130 372.639648,74.640091 376.826416,79.698532 
	C377.314301,85.468452 374.855286,89.429169 369.882965,91.334389 
	C364.864014,93.257500 360.530975,91.617500 357.029053,87.522186 
	C354.349335,84.388359 351.481873,81.415062 348.453552,78.159225 
z"/>
<path fill="#EFB0B9" opacity="1.000000" stroke="none" 
	d="
M419.009155,415.510925 
	C410.104401,405.850098 401.196869,395.723816 392.143250,385.288269 
	C395.413483,385.975891 398.829773,386.972839 402.615784,388.037354 
	C408.503937,390.516541 414.022400,392.928223 419.782166,395.579803 
	C419.684387,402.228302 419.345367,408.636932 419.009155,415.510925 
z"/>
<path fill="#E05D6F" opacity="1.000000" stroke="none" 
	d="
M135.576874,332.987610 
	C138.544235,343.147400 135.683548,352.661407 132.952820,362.582703 
	C129.274567,368.975525 125.774559,375.069946 121.920502,380.931580 
	C120.518990,383.063141 118.273178,384.639557 116.199821,386.722229 
	C107.324036,390.152130 98.825935,393.938171 89.953171,396.340393 
	C80.459358,398.910706 70.612442,400.176910 60.475952,402.001556 
	C64.923851,396.872986 69.815445,391.755127 74.868813,386.350861 
	C85.740273,375.602600 95.510567,364.423157 102.042953,350.373657 
	C102.711792,348.149231 103.934731,346.280060 103.883827,344.446259 
	C103.637985,335.591339 107.366737,329.241516 115.555191,326.071655 
	C123.796242,322.881409 129.899307,327.106628 135.576874,332.987610 
z"/>
<path fill="#F6D0D7" opacity="1.000000" stroke="none" 
	d="
M35.813992,400.866638 
	C35.726013,400.894775 35.574066,400.781219 35.348801,400.549622 
	C35.465332,400.474884 35.623508,400.572662 35.813992,400.866638 
z"/>
<path fill="#3E3E47" opacity="1.000000" stroke="none" 
	d="
M177.751770,227.974747 
	C183.178558,220.175629 190.277252,217.221710 198.100708,219.259949 
	C205.154404,221.097610 210.460709,227.275726 211.238358,234.556076 
	C212.062469,242.271286 208.312988,249.324707 201.577255,252.730438 
	C194.841263,256.136292 186.710587,254.964813 181.200623,249.794556 
	C175.311340,244.268295 174.035141,236.727737 177.751770,227.974747 
z"/>
<path fill="#3E3E47" opacity="1.000000" stroke="none" 
	d="
M338.215240,233.777084 
	C339.180298,244.855072 333.140625,252.962219 323.020508,254.649307 
	C314.328003,256.098419 305.034027,249.764435 303.067444,241.050995 
	C300.920441,231.538101 306.260803,222.321457 315.536255,219.531815 
	C325.601654,216.504608 335.262939,222.424240 338.215240,233.777084 
z"/>
<path fill="#3E3E47" opacity="1.000000" stroke="none" 
	d="
M246.492401,265.698608 
	C244.707397,264.466827 242.550323,263.681549 242.005951,262.273010 
	C241.179810,260.135437 240.575012,257.028412 241.577621,255.348892 
	C242.373291,254.016037 246.566299,253.032623 247.791412,253.916641 
	C254.110107,258.476105 259.805054,258.533600 266.143890,253.953644 
	C267.386932,253.055527 271.113800,254.004684 272.438019,255.344406 
	C273.389099,256.306641 272.971741,259.846802 271.910522,261.353424 
	C268.005005,266.898163 257.396851,269.514404 250.613144,267.123413 
	C249.363708,266.683044 248.099716,266.284088 246.492401,265.698608 
z"/>
</svg>